<?xml version="1.0" encoding="UTF-8"?>
<svg version="1.1" xmlns="http://www.w3.org/2000/svg" width="968" height="968">
<path d="M0 0 C2.17898704 0.55306724 4.36313542 1.08058645 6.54882812 1.60644531 C7.95024966 1.95649048 9.35130583 2.30800238 10.75195312 2.66113281 C12.00911133 2.9753418 13.26626953 3.28955078 14.56152344 3.61328125 C18.64643693 5.05717893 21.93623252 6.82656659 23.92382812 10.80175781 C24.07326668 13.06920055 24.14527714 15.34207531 24.17382812 17.61425781 C24.19960938 18.83757812 24.22539062 20.06089844 24.25195312 21.32128906 C23.88351861 25.22932663 23.5745588 26.90315347 20.92382812 29.80175781 C14.5027913 32.96258597 6.94032617 34.04069057 -0.01367188 35.48925781 C-1.03396484 35.71419922 -2.05425781 35.93914062 -3.10546875 36.17089844 C-12.04893805 38.04862747 -19.81081704 38.60506823 -28.70117188 36.23925781 C-37.12221855 34.36458896 -45.57547748 34.66880644 -54.13867188 34.92675781 C-54.81254944 34.94318329 -55.486427 34.95960876 -56.1807251 34.97653198 C-72.24218224 35.40418371 -90.94337076 37.0472623 -103.07617188 48.80175781 C-111.28898338 59.06254776 -112.00003323 72.4955187 -110.70117188 85.11425781 C-109.33449606 95.76280117 -107.16763326 106.14007166 -104.59960938 116.55957031 C-104.42771465 117.26266453 -104.25581993 117.96575874 -104.07871628 118.69015884 C-99.72531706 136.49366727 -95.07639315 154.22054246 -90.41823959 171.9462204 C-89.18822855 176.6300056 -87.96220864 181.3148357 -86.7355957 185.99951172 C-81.43011042 206.25506749 -76.10282784 226.50487932 -70.77085114 246.75347519 C-69.86694874 250.1866597 -68.96339985 253.61993703 -68.05999756 257.05325317 C-67.76471161 258.17545698 -67.46942566 259.29766079 -67.16519165 260.45387077 C-66.57339213 262.70299624 -65.98161547 264.95212773 -65.38986206 267.20126534 C-63.6532801 273.80046571 -61.91364421 280.39885168 -60.17167377 286.99663162 C-59.0848653 291.11518798 -58.0004555 295.23437331 -56.91662407 299.35371399 C-56.41300027 301.26570599 -55.90834766 303.17742735 -55.40257454 305.08885193 C-50.67252951 322.96785596 -50.67252951 322.96785596 -49.07617188 331.80175781 C-50.06617188 331.80175781 -51.05617188 331.80175781 -52.07617188 331.80175781 C-46.11308052 346.41042538 -40.0995203 359.55709091 -25.36132812 366.94238281 C-16.752342 370.17995024 -8.39151272 370.09909053 0.68041992 370.09228516 C2.27625338 370.09827659 3.87208395 370.10508355 5.46791077 370.11264038 C9.78636963 370.13024739 14.10474913 370.13499359 18.42324042 370.13627195 C21.12700004 370.1376974 23.83073974 370.14197448 26.5344944 370.14726639 C35.9835398 370.16575086 45.43252892 370.1739392 54.8815918 370.17236328 C63.66232244 370.1711631 72.44280679 370.1922452 81.22347516 370.22385061 C88.78387367 370.25008509 96.3441921 370.26072754 103.90463573 370.25945246 C108.41042141 370.25894483 112.91598816 370.26451704 117.42172813 370.28580856 C121.66460134 370.3053117 125.90704953 370.30523385 130.14993858 370.2907753 C131.69738391 370.2887008 133.2448567 370.29330594 134.7922554 370.30549622 C147.20205136 370.39684064 159.1786223 369.23821474 168.93554688 360.83691406 C176.84483875 352.74115558 181.86683669 342.25851038 185.92382812 331.80175781 C184.60382813 331.47175781 183.28382813 331.14175781 181.92382812 330.80175781 C182.53959563 324.90335055 183.67100198 319.36919493 185.19848633 313.64453125 C185.5461395 312.31667115 185.5461395 312.31667115 185.90081596 310.96198559 C186.67053451 308.02706131 187.44755073 305.09412147 188.22460938 302.16113281 C188.77456027 300.07023147 189.3240546 297.97921 189.87312317 295.88807678 C191.34894127 290.27247059 192.83101905 284.65853364 194.3141861 279.04486465 C195.85644451 273.20273488 197.39252946 267.35898261 198.92919922 261.51538086 C202.30424626 248.68521423 205.68702818 235.85709541 209.07207489 223.0295639 C210.38705343 218.04631811 211.70160151 213.06295879 213.01611328 208.07958984 C213.37649201 206.71345393 213.37649201 206.71345393 213.74415112 205.31971931 C215.55665636 198.44849666 217.36797211 191.57696085 219.17877674 184.70528984 C220.38912688 180.11324515 221.6021 175.52190471 222.81734562 170.9311533 C226.91330381 155.45309807 230.92701053 139.95664157 234.82226562 124.42675781 C235.01213169 123.67225153 235.20199776 122.91774525 235.39761734 122.14037514 C245.58445901 86.22141966 245.58445901 86.22141966 238.45898438 50.95410156 C231.50080447 41.19848546 219.03102741 38.45032676 207.90820312 36.39550781 C201.27934512 35.341656 194.62222657 35.00754333 187.92382812 34.80175781 C186.90699951 34.76091064 186.90699951 34.76091064 185.86962891 34.71923828 C177.38463972 34.40052501 169.36375821 34.87881882 160.98632812 36.30175781 C147.72217028 38.53235118 138.08796104 37.16592887 125.18847656 33.41601562 C122.94290199 32.77776926 122.94290199 32.77776926 120.69824219 32.3671875 C117.27051089 31.68988937 115.12517631 30.97534484 112.45898438 28.67675781 C110.50599557 25.01925206 110.29781592 21.85159496 110.36132812 17.80175781 C110.33748047 17.10308594 110.31363281 16.40441406 110.2890625 15.68457031 C110.29892042 12.20144019 110.78935045 10.01299353 112.66210938 7.07128906 C117.60464155 3.63223374 122.93320509 2.17372794 128.67382812 0.48925781 C129.8159375 0.13025391 130.95804688 -0.22875 132.13476562 -0.59863281 C141.07017483 -3.29466145 148.06435262 -4.09649847 157.09790039 -1.8269043 C167.35979761 0.73995361 177.47005507 1.18988303 187.98632812 1.36425781 C214.59778396 1.84232739 240.6329229 5.20398954 260.74414062 24.45800781 C275.33197185 40.14384784 278.7626949 58.74509668 278.26757812 79.46972656 C277.12784819 106.08649107 268.86621997 132.58954092 261.39648438 158.02441406 C261.14530853 158.88047556 260.89413269 159.73653706 260.63534546 160.61853981 C259.58135994 164.20947741 258.52645197 167.80014338 257.47104073 171.39066219 C245.152393 213.327761 234.37032728 255.51343708 224.40258789 298.06762695 C224.0367563 299.62800548 224.0367563 299.62800548 223.66353416 301.21990681 C222.52069787 306.09801618 221.38336165 310.97725261 220.25891113 315.8596344 C219.85761481 317.5879078 219.45628999 319.31617459 219.05493164 321.04443359 C218.79566438 322.18437067 218.79566438 322.18437067 218.5311594 323.34733677 C217.30274404 328.61365647 215.70999975 333.69860372 213.92382812 338.80175781 C212.93382812 338.80175781 211.94382812 338.80175781 210.92382812 338.80175781 C210.49972656 339.81753906 210.075625 340.83332031 209.63867188 341.87988281 C204.07653224 355.02063807 198.12129293 366.58703842 187.92382812 376.80175781 C187.21355469 377.52363281 186.50328125 378.24550781 185.77148438 378.98925781 C172.71103915 391.459267 156.81588202 394.30862277 139.31054688 394.09472656 C137.96149677 394.08911209 136.61244044 394.08485078 135.26338196 394.0818634 C131.76004313 394.07055986 128.25709401 394.04122333 124.75390625 394.00775146 C121.16021079 393.9767325 117.56644878 393.96312506 113.97265625 393.94824219 C106.95603916 393.91793719 99.94048381 393.85918422 92.92382812 393.80175781 C92.92382812 408.32175781 92.92382812 422.84175781 92.92382812 437.80175781 C90.61382813 437.80175781 88.30382812 437.80175781 85.92382812 437.80175781 C85.92382812 449.35175781 85.92382812 460.90175781 85.92382812 472.80175781 C90.570979 472.78081055 95.21812988 472.75986328 100.00610352 472.73828125 C115.39278786 472.6718812 130.77947798 472.62756617 146.16626835 472.59450912 C155.49153544 472.57393946 164.81666617 472.54592671 174.1418457 472.5 C182.2756847 472.45995998 190.40942487 472.4342844 198.5433597 472.42540383 C202.84480212 472.42021795 207.14596201 472.40814797 211.44731331 472.37883759 C215.50784182 472.35139617 219.56797528 472.34336982 223.62858772 472.34932709 C225.10747434 472.34823953 226.58637618 472.34045831 228.06518173 472.32493591 C247.54056993 472.13078741 264.35377284 477.67733812 278.61132812 491.32519531 C291.37236352 504.99157444 299.08450329 521.97168754 299.92382812 540.80175781 C299.96378906 541.46691406 300.00375 542.13207031 300.04492188 542.81738281 C301.13167158 577.33766747 282.59856355 609.03505688 259.94335938 633.59472656 C258.18477905 635.51657933 256.51563038 637.4782327 254.86132812 639.48925781 C252.25068358 642.54562216 249.41102949 645.15578574 246.34179688 647.74707031 C244.54628245 649.27282248 242.78271004 650.83633037 241.03710938 652.41894531 C214.31657154 676.45887423 176.74788149 698.27571596 139.92382812 699.80175781 C139.23933594 699.84171875 138.55484375 699.88167969 137.84960938 699.92285156 C112.88712299 700.70725502 89.81043026 690.94531583 71.43164062 674.58300781 C56.11157948 659.93352174 46.63386009 639.60857731 45.83156967 618.35808182 C45.79447505 615.57533293 45.78867331 612.79422184 45.79443359 610.01123047 C45.79268127 608.95988922 45.79092896 607.90854797 45.78912354 606.8253479 C45.78474435 603.37215495 45.78762785 599.91901373 45.79101562 596.46582031 C45.79034176 594.06065867 45.78937104 591.6554971 45.78811646 589.25033569 C45.78664508 584.22205961 45.78877719 579.19380135 45.79345703 574.16552734 C45.79917243 567.70896308 45.79586035 561.25244022 45.78988457 554.79587746 C45.78627955 549.83580205 45.78741695 544.87573655 45.79001236 539.91566086 C45.79068084 537.53372569 45.78985594 535.15178963 45.78753281 532.7698555 C45.7850053 529.45185187 45.78884747 526.13391649 45.79443359 522.81591797 C45.79240936 521.82579712 45.79038513 520.83567627 45.78829956 519.81555176 C45.7925293 518.46567673 45.7925293 518.46567673 45.79684448 517.08853149 C45.79722151 516.30433649 45.79759853 515.52014149 45.79798698 514.712183 C45.92382812 512.80175781 45.92382812 512.80175781 46.92382812 510.80175781 C-0.26617187 510.80175781 -47.45617187 510.80175781 -96.07617188 510.80175781 C-97.06617188 514.10175781 -98.05617188 517.40175781 -99.07617188 520.80175781 C-103.01467477 529.29096613 -108.51085998 536.20378267 -115.07617188 542.80175781 C-115.80191406 543.56230469 -116.52765625 544.32285156 -117.27539062 545.10644531 C-133.00843294 560.54566171 -154.07168584 566.07303258 -175.54907227 566.04833984 C-196.9594426 565.7912534 -216.22708508 557.60743252 -231.91992188 543.05175781 C-247.1137839 527.19729309 -254.44719156 507.58740691 -254.07617188 485.80175781 C-253.08646342 466.23922255 -244.16078852 448.32200829 -230.07617188 434.80175781 C-210.15210703 417.63685647 -187.72952839 412.29197342 -162.07617188 413.80175781 C-141.10378671 416.07452517 -121.69048244 428.06785399 -108.07617188 443.80175781 C-102.27204958 451.73800666 -95.07617188 462.63932774 -95.07617188 472.80175781 C-48.21617187 472.80175781 -1.35617187 472.80175781 46.92382812 472.80175781 C46.92382812 461.25175781 46.92382812 449.70175781 46.92382812 437.80175781 C44.61382812 437.80175781 42.30382812 437.80175781 39.92382812 437.80175781 C39.92382812 423.28175781 39.92382812 408.76175781 39.92382812 393.80175781 C35.77820313 393.84816406 31.63257813 393.89457031 27.36132812 393.94238281 C24.00897698 393.96819384 20.65665476 393.98985388 17.30426025 394.00875854 C13.79117145 394.02968592 10.27848285 394.05753906 6.765625 394.10351562 C-17.29732604 394.40993574 -37.28516002 393.83716986 -55.70507812 376.36035156 C-65.31197711 365.9937637 -72.91918013 352.31720335 -77.07617188 338.80175781 C-78.72617187 338.80175781 -80.37617188 338.80175781 -82.07617188 338.80175781 C-92.31616029 300.9639967 -102.26362089 263.05270291 -112.13623047 225.11767578 C-112.90910801 222.14805636 -113.68199785 219.17844014 -114.45491791 216.20883179 C-114.96450163 214.25095562 -115.47404868 212.29306992 -115.98355865 210.33517456 C-119.10211609 198.35312208 -122.23357399 186.37462255 -125.39286232 174.40324211 C-125.95575926 172.27018782 -126.51818993 170.13701111 -127.08049011 168.00379944 C-128.74213428 161.7012019 -130.40742229 155.39960509 -132.07983398 149.09985352 C-153.3182272 68.77497959 -153.3182272 68.77497959 -137.07617188 37.80175781 C-126.10563702 20.38747723 -110.25600196 9.77866735 -90.21362305 5.0859375 C-79.99105756 2.79869205 -70.28706004 1.72708514 -59.80493164 1.5612793 C-42.83075453 1.33165874 -42.83075453 1.33165874 -26.33007812 -2.35839844 C-17.25671464 -4.70026296 -8.82510115 -2.25228103 0 0 Z M-43.07617188 16.80175781 C-43.07617188 17.46175781 -43.07617188 18.12175781 -43.07617188 18.80175781 C-25.25617188 18.80175781 -7.43617188 18.80175781 10.92382812 18.80175781 C10.92382812 18.14175781 10.92382812 17.48175781 10.92382812 16.80175781 C-6.89617187 16.80175781 -24.71617187 16.80175781 -43.07617188 16.80175781 Z M123.92382812 16.80175781 C123.92382812 17.46175781 123.92382812 18.12175781 123.92382812 18.80175781 C141.08382813 18.80175781 158.24382812 18.80175781 175.92382812 18.80175781 C175.92382812 18.14175781 175.92382812 17.48175781 175.92382812 16.80175781 C158.76382813 16.80175781 141.60382813 16.80175781 123.92382812 16.80175781 Z M192.92382812 333.80175781 C192.49972656 334.82914062 192.075625 335.85652344 191.63867188 336.91503906 C184.93968713 352.85187559 177.67215268 366.82366448 161.17382812 374.05175781 C147.09538221 379.07486198 131.84787226 378.22765736 117.11132812 378.42675781 C114.76170538 378.46500786 112.41209561 378.50406348 110.0625 378.54394531 C104.34972584 378.63917751 98.63687136 378.72443937 92.92382812 378.80175781 C92.92382812 381.44175781 92.92382812 384.08175781 92.92382812 386.80175781 C100.53953607 386.87173296 108.15521005 386.92480754 115.77116776 386.95719433 C119.30882495 386.97275025 122.84625979 386.99380018 126.38378906 387.02807617 C130.46486359 387.06736443 134.54571008 387.08155007 138.62695312 387.09472656 C140.50269012 387.11795235 140.50269012 387.11795235 142.4163208 387.14164734 C159.3473655 387.14484348 172.15914655 382.14806332 184.42773438 370.41894531 C190.37653862 364.18154493 194.39862836 357.17467781 198.29882812 349.55175781 C198.64518311 348.87806152 198.99153809 348.20436523 199.34838867 347.51025391 C201.27314249 343.60863461 202.44759408 340.18311099 202.92382812 335.80175781 C199.62382813 335.14175781 196.32382812 334.48175781 192.92382812 333.80175781 Z M-69.07617188 335.80175781 C-68.51021816 341.00853195 -66.8097335 344.96252491 -64.45117188 349.55175781 C-64.09144287 350.25695557 -63.73171387 350.96215332 -63.36108398 351.6887207 C-55.71052231 366.39874849 -45.4012253 378.97720049 -29.32617188 384.61425781 C-23.93144778 386.31297819 -18.62303842 386.92739487 -12.97900391 386.9152832 C-11.79823273 386.91520767 -10.61746155 386.91513214 -9.40090942 386.91505432 C-8.14132416 386.90989304 -6.88173889 386.90473175 -5.58398438 386.89941406 C-3.63236893 386.89729164 -3.63236893 386.89729164 -1.6413269 386.89512634 C1.80112666 386.89132625 5.24353737 386.88151765 8.68597412 386.87042236 C12.20535706 386.86015407 15.72474699 386.85561716 19.24414062 386.85058594 C26.13738728 386.8398929 33.03060564 386.82284692 39.92382812 386.80175781 C39.92382812 384.16175781 39.92382812 381.52175781 39.92382812 378.80175781 C39.06843948 378.78962753 39.06843948 378.78962753 38.19577026 378.7772522 C32.19199529 378.6903426 26.18851833 378.59081623 20.18505859 378.484375 C17.95268815 378.4463909 15.72026283 378.41148834 13.48779297 378.37988281 C-29.31123211 377.76655151 -29.31123211 377.76655151 -43.07617188 363.80175781 C-49.17274822 356.46729794 -53.33247623 348.77553983 -56.78173828 339.91918945 C-57.47291499 338.18223794 -58.2670801 336.48701633 -59.07617188 334.80175781 C-63.01287676 333.48952285 -65.20105331 334.55879525 -69.07617188 335.80175781 Z M85.92382812 510.80175781 C85.05379665 534.98126148 85.05379665 534.98126148 84.72070312 559.17285156 C84.71787575 559.93199419 84.71504837 560.69113682 84.71213531 561.47328377 C84.6975157 565.45883606 84.68804529 569.44435542 84.68359375 573.42993164 C84.67803034 577.47679566 84.6537331 581.52333661 84.6256218 585.57009792 C84.60685448 588.75923051 84.60178331 591.94828524 84.60025787 595.13746834 C84.5972843 596.62948519 84.5894424 598.12150253 84.57607269 599.61346245 C84.4261189 617.55942914 87.04801813 635.62685963 100.06054688 649.12988281 C110.5916275 658.57915432 122.92463659 661.91149392 136.92382812 661.80175781 C174.50765396 659.60742264 209.65514137 631.6372015 233.92382812 604.80175781 C248.3343792 587.73237058 260.69875431 566.62900179 260.17382812 543.69628906 C259.26305753 533.15127322 256.62608091 524.7279274 249.29882812 517.05175781 C240.57994965 510.51171147 230.46253027 510.23368832 219.99731445 510.34765625 C218.52773062 510.34878701 217.05814454 510.34814641 215.58856201 510.34588623 C211.63252559 510.34474706 207.67698263 510.36812557 203.72106004 510.39618206 C199.57445728 510.42133005 195.42784096 510.4235482 191.28117371 510.42828369 C183.44387837 510.44067436 175.60680846 510.47344252 167.76961201 510.51368165 C158.84090094 510.55852167 149.91217862 510.58041704 140.98338282 510.60046339 C122.63007052 510.64217904 104.2769675 510.71245433 85.92382812 510.80175781 Z " fill="#01BFA8" transform="translate(451.076171875,143.1982421875)"/>
</svg>
